<?xml version="1.0" encoding="utf-8"?>
<!-- Generator: Adobe Illustrator 13.0.0, SVG Export Plug-In . SVG Version: 6.00 Build 14948)  -->
<!DOCTYPE svg PUBLIC "-//W3C//DTD SVG 1.1//EN" "http://www.w3.org/Graphics/SVG/1.1/DTD/svg11.dtd">
<svg version="1.1" xmlns="http://www.w3.org/2000/svg" xmlns:xlink="http://www.w3.org/1999/xlink" x="0px" y="0px"
	 width="432.481px" height="432.903px" viewBox="0 0 432.481 432.903" enable-background="new 0 0 432.481 432.903"
	 xml:space="preserve">
<g id="Layer_1">
	<path fill="#7E2818" stroke="#000000" d="M387.596,299.452c70.193,34-151.905,184.687-157.558,106.897
		c5.652,77.789-235.896-39.21-171.354-82.999C-5.858,367.139-25.307,99.452,44.886,133.452
		c-70.193-34,151.906-184.687,157.558-106.898c-5.651-77.789,235.896,39.211,171.355,83
		C438.34,65.765,457.789,333.452,387.596,299.452z"/>
</g>
<g id="Temp">
	<ellipse fill="#F79143" stroke="#000000" cx="220.586" cy="210.777" rx="129.57" ry="120.967"/>
</g>
<g id="Layer_3">
	<g>
		<line fill="none" x1="218.973" y1="210.24" x2="242.628" y2="251.101"/>
		<circle fill="none" cx="218.973" cy="210.24" r="39.344"/>
		<circle fill="none" cx="218.973" cy="210.24" r="47.214"/>
		<polyline fill="none" points="218.973,210.24 119.305,242.97 218.973,210.24 318.642,177.51 218.973,210.24 186.243,110.572 
			218.973,210.24 251.702,309.909 218.973,210.24 199.023,244.784 218.973,210.24 238.923,175.696 218.973,210.24 184.429,190.29 
			218.973,210.24 253.517,230.19 218.973,210.24 34.271,336.249 218.973,210.24 403.675,84.232 218.973,210.24 92.965,25.538 
			218.973,210.24 344.981,394.942 218.973,210.24 162.019,266.562 218.973,210.24 275.929,153.919 218.973,210.24 162.652,153.286 
			218.973,210.24 275.294,267.195 218.973,210.24 163.086,340.866 218.973,210.24 274.86,79.614 218.973,210.24 88.347,154.354 
			218.973,210.24 349.599,266.127 218.973,210.24 68.902,245.956 218.973,210.24 369.044,174.525 218.973,210.24 183.258,60.169 
			218.973,210.24 254.688,360.311 218.973,210.24 90.876,295.116 218.973,210.24 347.069,125.365 218.973,210.24 134.098,82.144 
			218.973,210.24 303.849,338.336 218.973,210.24 187.358,240.631 218.973,210.24 250.589,179.849 218.973,210.24 188.582,178.625 
			218.973,210.24 249.364,241.855 218.973,210.24 117.452,254.296 218.973,210.24 320.493,166.185 218.973,210.24 174.917,108.719 
			218.973,210.24 263.028,311.76 218.973,210.24 65.413,221.418 218.973,210.24 372.534,199.062 218.973,210.24 207.795,56.68 
			218.973,210.24 230.151,363.801 218.973,210.24 172.337,251.923 218.973,210.24 265.608,168.557 218.973,210.24 177.29,163.604 
			218.973,210.24 260.655,256.876 218.973,210.24 202.715,291.665 218.973,210.24 235.231,128.816 218.973,210.24 137.549,193.982 
			218.973,210.24 300.397,226.499 218.973,210.24 63.633,251.773 218.973,210.24 374.313,168.708 218.973,210.24 177.44,54.9 
			218.973,210.24 260.505,365.581 218.973,210.24 185.646,262.027 218.973,210.24 252.3,158.453 218.973,210.24 167.186,176.914 
			218.973,210.24 270.761,243.567 218.973,210.24 151.346,378.821 218.973,210.24 286.601,41.66 218.973,210.24 50.393,142.613 
			218.973,210.24 387.554,277.868 		"/>
		<radialGradient id="SVGID_1_" cx="218.9736" cy="210.2407" r="94.4277" gradientUnits="userSpaceOnUse">
			<stop  offset="0" style="stop-color:#000000"/>
			<stop  offset="0.73" style="stop-color:#93432A"/>
			<stop  offset="1" style="stop-color:#000000"/>
		</radialGradient>
		<circle opacity="0.15" fill="url(#SVGID_1_)" cx="218.973" cy="210.24" r="94.428"/>
		<radialGradient id="SVGID_2_" cx="218.9727" cy="210.2402" r="47.2139" gradientUnits="userSpaceOnUse">
			<stop  offset="0.15" style="stop-color:#FFFFFF"/>
			<stop  offset="0.2134" style="stop-color:#D7C0BE"/>
			<stop  offset="0.2931" style="stop-color:#B68A89"/>
			<stop  offset="0.362" style="stop-color:#A16A6B"/>
			<stop  offset="0.4166" style="stop-color:#95585A"/>
			<stop  offset="0.45" style="stop-color:#915155"/>
			<stop  offset="0.5442" style="stop-color:#78312F"/>
			<stop  offset="0.6472" style="stop-color:#5C0E05"/>
			<stop  offset="0.7362" style="stop-color:#410000"/>
			<stop  offset="0.8068" style="stop-color:#200000"/>
			<stop  offset="0.85" style="stop-color:#000000"/>
			<stop  offset="0.856" style="stop-color:#120000"/>
			<stop  offset="0.8623" style="stop-color:#300000"/>
			<stop  offset="0.8686" style="stop-color:#460000"/>
			<stop  offset="0.875" style="stop-color:#5D0000"/>
			<stop  offset="0.8815" style="stop-color:#751500"/>
			<stop  offset="0.888" style="stop-color:#912A15"/>
			<stop  offset="0.8945" style="stop-color:#B44126"/>
			<stop  offset="0.9" style="stop-color:#D65836"/>
			<stop  offset="0.9063" style="stop-color:#BD482B"/>
			<stop  offset="0.916" style="stop-color:#9D311B"/>
			<stop  offset="0.9262" style="stop-color:#801E09"/>
			<stop  offset="0.9367" style="stop-color:#690900"/>
			<stop  offset="0.9475" style="stop-color:#530000"/>
			<stop  offset="0.9588" style="stop-color:#410000"/>
			<stop  offset="0.9707" style="stop-color:#290000"/>
			<stop  offset="0.9838" style="stop-color:#0E0000"/>
			<stop  offset="1" style="stop-color:#000000"/>
		</radialGradient>
		<circle opacity="0.5" fill="url(#SVGID_2_)" cx="218.973" cy="210.24" r="47.214"/>
		<radialGradient id="SVGID_3_" cx="218.9727" cy="210.2402" r="39.3447" gradientUnits="userSpaceOnUse">
			<stop  offset="0.15" style="stop-color:#FFFFFF"/>
			<stop  offset="0.2824" style="stop-color:#9C9593"/>
			<stop  offset="0.4253" style="stop-color:#5A5250"/>
			<stop  offset="0.5636" style="stop-color:#302A28"/>
			<stop  offset="0.6936" style="stop-color:#0E0704"/>
			<stop  offset="0.8134" style="stop-color:#000000"/>
			<stop  offset="0.9192" style="stop-color:#000000"/>
			<stop  offset="1" style="stop-color:#000000"/>
		</radialGradient>
		<circle fill="url(#SVGID_3_)" cx="218.973" cy="210.24" r="39.344"/>
		<polyline opacity="0.03" fill="none" stroke="#FFFFFF" stroke-width="2" points="218.973,210.24 119.305,242.97 218.973,210.24 
			318.642,177.51 218.973,210.24 186.243,110.572 218.973,210.24 251.702,309.909 218.973,210.24 199.023,244.784 218.973,210.24 
			238.923,175.696 218.973,210.24 184.429,190.29 218.973,210.24 253.517,230.19 218.973,210.24 34.271,336.249 218.973,210.24 
			403.675,84.232 218.973,210.24 92.965,25.538 218.973,210.24 344.981,394.942 218.973,210.24 162.019,266.562 218.973,210.24 
			275.929,153.919 218.973,210.24 162.652,153.286 218.973,210.24 275.294,267.195 218.973,210.24 163.086,340.866 218.973,210.24 
			274.86,79.614 218.973,210.24 88.347,154.354 218.973,210.24 349.599,266.127 218.973,210.24 68.902,245.956 218.973,210.24 
			369.044,174.525 218.973,210.24 183.258,60.169 218.973,210.24 254.688,360.311 218.973,210.24 90.876,295.116 218.973,210.24 
			347.069,125.365 218.973,210.24 134.098,82.144 218.973,210.24 303.849,338.336 218.973,210.24 187.358,240.631 218.973,210.24 
			250.589,179.849 218.973,210.24 188.582,178.625 218.973,210.24 249.364,241.855 218.973,210.24 117.452,254.296 218.973,210.24 
			320.493,166.185 218.973,210.24 174.917,108.719 218.973,210.24 263.028,311.76 218.973,210.24 65.413,221.418 218.973,210.24 
			372.534,199.062 218.973,210.24 207.795,56.68 218.973,210.24 230.151,363.801 218.973,210.24 172.337,251.923 218.973,210.24 
			265.608,168.557 218.973,210.24 177.29,163.604 218.973,210.24 260.655,256.876 218.973,210.24 202.715,291.665 218.973,210.24 
			235.231,128.816 218.973,210.24 137.549,193.982 218.973,210.24 300.397,226.499 218.973,210.24 63.633,251.773 218.973,210.24 
			374.313,168.708 218.973,210.24 177.44,54.9 218.973,210.24 260.505,365.581 218.973,210.24 185.646,262.027 218.973,210.24 
			252.3,158.453 218.973,210.24 167.186,176.914 218.973,210.24 270.761,243.567 218.973,210.24 151.346,378.821 218.973,210.24 
			286.601,41.66 218.973,210.24 50.393,142.613 218.973,210.24 387.554,277.868 		"/>
	</g>
</g>
</svg>
